{"title":"Wonders of the solar system 3-5 The thin blue line","uid":6643422,"size":782544896,"categoryP":"video","categoryS":"tv_shows","magnet":"?xt=urn:btih:a297743c24bec24e9e250434624d5c7a16f66f6c&amp;dn=Wonders+of+the+solar+system+3-5+The+thin+blue+line&amp;tr=udp%3A%2F%2Ftracker.openbittorrent.com%3A80&amp;tr=udp%3A%2F%2Fopen.demonii.com%3A1337&amp;tr=udp%3A%2F%2Ftracker.coppersurfer.tk%3A6969&amp;tr=udp%3A%2F%2Fexodus.desync.com%3A6969","seeders":2,"leechers":0,"uploader":"stu181","files":1,"time":1314840945,"description":"Wonders of the solar system 3-5 The thin blue line\n\nbrought to you by the Pro Torrent Team  &lt;a href=&quot; http://www.protorrent.co.uk&quot; rel=&quot;nofollow&quot; target=&quot;_NEW&quot;&gt; http://www.protorrent.co.uk&lt;/a&gt;\n\nProfessor Brian Cox describes how something as flimsy as an envelope of gas - an atmosphere - can create some of the most wondrous sights in the solar system.\n\nFormat                           : AVI\nFormat/Info                      : Audio Video Interleave\nFile size                        : 746 MiB\nDuration                         : 59mn 1s\nOverall bit rate                 : 1 768 Kbps\nWriting application              : VirtualDubMod 1.5.4.1 (build 2178/release)\nWriting library                  : VirtualDubMod build 2178/release\n\nVideo\nID                               : 0\nFormat                           : MPEG-4 Visual\nFormat profile                   : Advanced Simple@L5\nFormat settings, BVOP            : No\nFormat settings, QPel            : No\nFormat settings, GMC             : No warppoints\nFormat settings, Matrix          : Custom\nCodec ID                         : XVID\nCodec ID/Hint                    : XviD\nDuration                         : 59mn 1s\nBit rate                         : 1 569 Kbps\nWidth                            : 704 pixels\nHeight                           : 400 pixels\nDisplay aspect ratio             : 16:9\nFrame rate                       : 25.000 fps\nColor space                      : YUV\nChroma subsampling               : 4:2:0\nBit depth                        : 8 bits\nScan type                        : Progressive\nCompression mode                 : Lossy\nBits/(Pixel*Frame)               : 0.223\nStream size                      : 662 MiB (89%)\nWriting library                  : XviD 1.2.1 (UTC 2008-12-04)\n\nAudio\nID                               : 1\nFormat                           : AC-3\nFormat/Info                      : Audio Coding 3\nMode extension                   : CM (complete main)\nCodec ID                         : 2000\nDuration                         : 59mn 0s\nBit rate mode                    : Constant\nBit rate                         : 192 Kbps\nChannel(s)                       : 2 channels\nChannel positions                : Front: L R\nSampling rate                    : 48.0 KHz\nBit depth                        : 16 bits\nCompression mode                 : Lossy\nStream size                      : 81.0 MiB (11%)\nAlignment                        : Split accross interleaves\nInterleave, duration             : 96 ms (2.40 video frames)\nInterleave, preload duration     : 96 ms","torrent":{"xt":"urn:btih:a297743c24bec24e9e250434624d5c7a16f66f6c","amp;dn":"Wonders+of+the+solar+system+3-5+The+thin+blue+line","amp;tr":["udp%3A%2F%2Ftracker.openbittorrent.com%3A80","udp%3A%2F%2Fopen.demonii.com%3A1337","udp%3A%2F%2Ftracker.coppersurfer.tk%3A6969","udp%3A%2F%2Fexodus.desync.com%3A6969"],"infoHash":"a297743c24bec24e9e250434624d5c7a16f66f6c","infoHashBuffer":{"type":"Buffer","data":[162,151,116,60,36,190,194,78,158,37,4,52,98,77,92,122,22,246,111,108]},"announce":[],"urlList":[]}}